# Blender 3.6.1
# www.blender.org
mtllib rock_1.mtl
o rock_1
v 0.036919 -0.471674 0.328800
v 0.323950 -0.406948 -0.620014
v 0.545405 0.449003 0.249301
v 0.159944 0.429286 0.277085
v 0.087425 0.371046 -0.628337
v 0.768251 0.356807 0.092998
v 0.777281 -0.041029 0.164508
v 0.635783 -0.344460 -0.195957
v -0.495021 -0.445070 -0.300082
v -0.852778 -0.092305 0.134615
v 0.244953 -0.272247 0.801900
v -0.436255 -0.098813 -0.683297
v 0.193991 0.124731 0.809873
v -0.400048 0.316090 0.536472
v -0.491182 -0.294618 0.791868
v 0.284135 -0.145807 -0.841826
v -0.621576 -0.161942 0.737510
v -0.784465 0.021281 0.520956
v -0.273101 0.471733 -0.481714
vn 0.4074 -0.4974 0.7659
vn -0.3959 -0.4964 0.7726
vn 0.0872 -0.9821 0.1672
vn 0.9497 -0.1929 0.2465
vn 0.2703 0.4283 0.8623
vn 0.7847 -0.5735 -0.2352
vn -0.8800 0.2523 0.4024
vn -0.3775 0.8213 -0.4277
vn -0.9945 -0.0776 -0.0703
vn -0.3390 0.8037 0.4891
vn 0.2533 0.6730 -0.6949
vn -0.5833 -0.1092 -0.8049
vn 0.8496 0.5265 0.0304
vn 0.3196 -0.7942 -0.5169
vn -0.4912 -0.8187 -0.2974
vn 0.4247 0.8265 0.3695
vn -0.6798 -0.1890 0.7087
vn 0.4062 -0.0503 -0.9124
vn -0.0405 0.9584 0.2826
vt 0.227037 0.621002
vt 0.433512 0.637018
vt 0.268941 0.788725
vt 0.021926 0.624526
vt 0.253596 0.468492
vt 0.066912 0.758747
vt 0.467334 0.146658
vt 0.137342 0.025888
vt 0.459748 0.045201
vt 0.449998 0.430615
vt 0.744195 0.703056
vt 0.842755 0.883723
vt 0.668236 0.802365
vt 0.751641 0.394242
vt 0.956651 0.502839
vt 0.665601 0.613968
vt 0.481584 0.518326
vt 0.661144 0.283292
vt 0.345701 0.235035
vt 0.053132 0.929205
vt 0.358155 0.965051
vt 0.043880 0.482114
vt 0.115530 0.330110
vt 0.294706 0.421715
vt 0.746808 0.076826
vt 0.778068 0.189026
vt 0.694443 0.055464
vt 0.475292 0.332464
vt 0.952661 0.678386
vt 0.865422 0.687831
vt 0.028504 0.368814
vt 0.029766 0.107338
vt 0.217793 0.253188
vt 0.461409 0.597991
vt 0.887326 0.368784
vt 0.969145 0.976072
vt 0.901621 0.056432
s 1
usemtl rock_1
f 11/1/1 15/2/2 1/3/3
f 7/4/4 13/5/5 11/1/1
f 11/1/1 1/3/3 8/6/6
f 18/7/7 19/8/8 10/9/9
f 15/2/2 13/5/5 14/10/10
f 5/11/11 12/12/12 19/13/8
f 5/11/11 6/14/13 8/15/6
f 19/16/8 12/17/12 10/18/9
f 19/8/8 18/7/7 14/19/10
f 1/3/3 2/20/14 8/6/6
f 15/2/2 9/21/15 1/3/3
f 11/1/1 13/5/5 15/2/2
f 7/22/4 3/23/16 13/24/5
f 17/25/17 18/26/7 15/27/2
f 9/28/15 10/18/9 12/17/12
f 8/15/6 2/29/14 16/30/18
f 8/6/6 7/4/4 11/1/1
f 6/31/13 5/32/11 3/23/16
f 19/8/8 14/19/10 4/33/19
f 13/24/5 3/23/16 4/33/19
f 8/15/6 16/30/18 5/11/11
f 14/10/10 17/34/17 15/2/2
f 8/15/6 6/14/13 7/35/4
f 16/30/18 12/12/12 5/11/11
f 14/19/10 13/24/5 4/33/19
f 2/29/14 9/36/15 12/12/12
f 1/3/3 9/21/15 2/20/14
f 12/12/12 16/30/18 2/29/14
f 17/25/17 14/37/10 18/26/7
f 7/22/4 6/31/13 3/23/16
f 9/28/15 15/27/2 10/18/9
f 18/26/7 10/18/9 15/27/2
f 19/8/8 4/33/19 3/23/16
f 19/8/8 3/23/16 5/32/11
