# Blender 4.1.1
# www.blender.org
mtllib skyboxtest.mtl
o Cube
v 1.000000 1.000000 -1.000000
v 1.000000 -1.000000 -1.000000
v 1.000000 1.000000 1.000000
v 1.000000 -1.000000 1.000000
v -1.000000 1.000000 -1.000000
v -1.000000 -1.000000 -1.000000
v -1.000000 1.000000 1.000000
v -1.000000 -1.000000 1.000000
vn -0.0000 -1.0000 -0.0000
vn -0.0000 -0.0000 -1.0000
vn 1.0000 -0.0000 -0.0000
vn -0.0000 1.0000 -0.0000
vn -1.0000 -0.0000 -0.0000
vn -0.0000 -0.0000 1.0000
vt 0.499067 0.998706
vt 0.499574 0.666164
vt 0.251180 0.667313
vt 0.251857 0.998174
vt 0.500141 0.334031
vt 0.250382 0.332636
vt 0.250063 0.665748
vt 0.499684 0.666508
vt 0.249917 0.333423
vt 0.000120 0.333332
vt -0.000028 0.666474
vt 0.250175 0.666749
vt 0.251146 0.000000
vt 0.251146 0.330871
vt 0.498615 0.332433
vt 0.499111 0.000000
vt 0.759871 0.333912
vt 0.500387 0.333850
vt 0.499487 0.665889
vt 0.758150 0.666014
vt 0.999621 0.333709
vt 0.759483 0.333750
vt 0.758331 0.666288
vt 0.999956 0.665449
s 0
usemtl Material
f 1/1/1 3/2/1 7/3/1 5/4/1
f 4/5/2 8/6/2 7/7/2 3/8/2
f 8/9/3 6/10/3 5/11/3 7/12/3
f 6/13/4 8/14/4 4/15/4 2/16/4
f 2/17/5 4/18/5 3/19/5 1/20/5
f 6/21/6 2/22/6 1/23/6 5/24/6
